<svg width="42" height="42" viewBox="0 0 42 42" fill="none" xmlns="http://www.w3.org/2000/svg">
<g clip-path="url(#clip0_7507_3868)">
<path d="M21 42C32.598 42 42 32.598 42 21C42 9.40202 32.598 0 21 0C9.40202 0 0 9.40202 0 21C0 32.598 9.40202 42 21 42Z" fill="#2D98E8"/>
<g clip-path="url(#clip1_7507_3868)">
<path d="M17.537 30.3627C17.8363 29.85 17.9038 29.3174 17.9029 28.7599C17.895 26.1716 17.895 23.5842 17.9029 20.9959C17.9048 20.4165 17.8031 19.8769 17.4832 19.3911C18.3686 18.3438 18.9389 17.1154 19.4917 15.8799C19.7774 15.2418 20.1149 14.6097 20.1668 13.8939C20.2059 13.3414 20.1717 12.7849 20.1756 12.2294C20.1775 11.8491 20.1335 11.4579 20.2049 11.0915C20.4407 9.87996 21.8055 9.27469 22.8455 9.91381C24.1046 10.6883 24.7523 11.8302 24.723 13.3414C24.7005 14.4902 24.3796 15.5783 24.0489 16.6634C24.0176 16.7659 23.9745 16.8655 23.9471 16.969C23.8786 17.2328 24.0303 17.4519 24.2984 17.4767C24.3796 17.4837 24.4617 17.4807 24.5429 17.4807C26.3607 17.4807 28.1785 17.4807 29.9963 17.4807C30.9189 17.4807 31.5929 17.9158 31.998 18.741C32.4069 19.5723 32.2974 20.3797 31.7671 21.1303C31.7152 21.204 31.6556 21.2717 31.5861 21.3583C32.0567 21.8839 32.3022 22.4912 32.1995 23.2149C32.0958 23.9436 31.6712 24.4235 31.0333 24.754C31.2897 25.2886 31.3552 25.8341 31.1762 26.3966C30.9952 26.965 30.6136 27.3552 30.098 27.6141C30.1763 27.855 30.281 28.083 30.323 28.3219C30.5393 29.5404 29.602 30.7101 28.3742 30.7619C28.0083 30.7768 27.6404 30.7679 27.2735 30.7679C24.5586 30.7679 21.8446 30.7659 19.1297 30.7699C18.574 30.7699 18.0516 30.6524 17.5379 30.3637L17.537 30.3627Z" fill="white"/>
<path d="M10.3191 24.9068C10.3191 23.1477 10.3191 21.3897 10.3191 19.6306C10.3191 19.1906 10.4375 19.0691 10.8689 19.0691C12.3609 19.0691 13.8529 19.0681 15.3449 19.0691C16.3976 19.0691 17.1167 19.7948 17.1177 20.861C17.1196 23.5659 17.1206 26.2697 17.1177 28.9745C17.1167 30.0407 16.3966 30.7644 15.3449 30.7654C13.8451 30.7674 12.3443 30.7654 10.8445 30.7654C10.4433 30.7654 10.3191 30.639 10.3181 30.2318C10.3181 28.4568 10.3181 26.6818 10.3181 24.9058L10.3191 24.9068Z" fill="white"/>
</g>
</g>
<defs>
<clipPath id="clip0_7507_3868">
<rect width="42" height="42" fill="white"/>
</clipPath>
<clipPath id="clip1_7507_3868">
<rect width="21.9278" height="21.1159" fill="white" transform="translate(10.3188 9.65546)"/>
</clipPath>
</defs>
</svg>
