<svg width="42" height="42" viewBox="0 0 42 42" fill="none" xmlns="http://www.w3.org/2000/svg">
<g clip-path="url(#clip0_7507_3898)">
<path d="M42 21C42 9.40202 32.598 0 21 0C9.40202 0 0 9.40202 0 21C0 32.598 9.40202 42 21 42C32.598 42 42 32.598 42 21Z" fill="#2176FF"/>
<path fill-rule="evenodd" clip-rule="evenodd" d="M18.5328 32.6417L18.618 32.8288H23.264L23.3491 32.6417C24.1247 30.9359 24.8909 29.1618 25.6473 27.3194C26.4036 25.4778 27.1219 23.6555 27.8026 21.8529C28.4832 20.0504 29.1071 18.3259 29.6747 16.6794C30.2411 15.0357 30.7416 13.5677 31.1761 12.2756L31.3218 11.8423H25.9521L25.8805 12.0652C25.5033 13.2379 25.0884 14.5085 24.6356 15.8771L24.6351 15.8784L24.6346 15.8798C24.2014 17.2268 23.7493 18.574 23.2782 19.9212L23.2776 19.9231L23.2769 19.925C22.8249 21.2721 22.3729 22.5602 21.921 23.7893L21.9202 23.7914L21.9196 23.7935C21.5985 24.705 21.2985 25.5242 21.0195 26.2514C20.7303 25.5247 20.4252 24.7056 20.1039 23.7935C19.67 22.562 19.2175 21.2719 18.7457 19.9231L17.3884 15.8784C16.9544 14.5098 16.5487 13.2387 16.1712 12.0652L16.0996 11.8423H10.5664L10.7044 12.2714C11.1206 13.5653 11.6121 15.0345 12.1789 16.6794L12.1795 16.681L12.1801 16.6826C12.766 18.328 13.3991 20.0514 14.0793 21.8529C14.7599 23.6555 15.4784 25.4778 16.2345 27.3194C16.9911 29.1618 17.7571 30.9359 18.5328 32.6417ZM21.0259 27.1036C21.0806 26.9664 21.1362 26.8251 21.1926 26.6802C21.5064 25.8748 21.8471 24.9497 22.215 23.9054C21.7809 25.1378 21.3846 26.2039 21.0259 27.1037V27.1036ZM18.8176 32.5028C18.0436 30.801 17.2792 29.0306 16.5241 27.1918C15.7691 25.353 15.0519 23.5338 14.3723 21.734C13.6927 19.9343 13.0605 18.2129 12.4753 16.5698C11.909 14.9265 11.4183 13.4594 11.003 12.1683C11.0376 12.2758 11.0725 12.3844 11.1081 12.4944C11.5004 13.7049 11.9562 15.0632 12.4753 16.5698C13.0605 18.2129 13.6927 19.9343 14.3723 21.734C15.0519 23.5338 15.7691 25.353 16.5241 27.1918C17.2792 29.0306 18.0436 30.801 18.8176 32.5028Z" fill="white"/>
<path fill-rule="evenodd" clip-rule="evenodd" d="M10.6566 21.5119C13.0405 22.4271 17.2532 22.3165 21.806 21.0282C26.3657 19.7379 30.0707 17.6048 31.6981 15.5507L31.2789 13.8985C30.3984 15.6387 26.4134 17.8654 21.3659 19.2938C16.3309 20.7185 11.8352 20.897 10.2383 19.8635L10.6566 21.5119Z" fill="#2176FF"/>
<path fill-rule="evenodd" clip-rule="evenodd" d="M10.9281 23.1501C13.312 24.0653 17.5247 23.9547 22.0776 22.6664C26.6374 21.3761 30.3424 19.243 31.9697 17.1889L31.5506 15.5369C30.6699 17.2769 26.6849 19.5036 21.6375 20.932C16.6024 22.3567 12.1066 22.5352 10.5098 21.5015L10.9281 23.1501Z" fill="white"/>
<path fill-rule="evenodd" clip-rule="evenodd" d="M20.9434 32.8288H23.2633L23.3482 32.6417C24.124 30.9359 24.8902 29.1618 25.6466 27.3194C26.4029 25.4778 27.1212 23.6555 27.8019 21.8529C28.4825 20.0504 29.1065 18.3259 29.674 16.6794C30.2404 15.0357 30.741 13.5677 31.1754 12.2756L31.3211 11.8423H26.1856C26.0461 11.8423 25.9226 11.9324 25.8798 12.0652C25.5026 13.2379 25.0877 14.5085 24.6349 15.8771L24.6344 15.8784L24.634 15.8798C24.2007 17.2268 23.7486 18.574 23.2775 19.9212L23.2769 19.9231L23.2763 19.925C22.8242 21.2721 22.3723 22.5602 21.9203 23.7893L21.9195 23.7914L21.9189 23.7935C21.5978 24.705 21.2978 25.5242 21.0188 26.2514C20.9938 26.1885 20.9687 26.1248 20.9434 26.0606V32.5028V32.8288ZM21.1919 26.6802C21.1355 26.8251 21.0799 26.9664 21.0252 27.1036V27.1037C21.3839 26.2039 21.7804 25.1378 22.2145 23.9054C22.6675 22.6731 23.1204 21.3818 23.5735 20.0321C24.0453 18.6823 24.4984 17.3326 24.9325 15.9828L24.9435 15.9497C24.9398 15.9607 24.936 15.9718 24.9325 15.9828C24.4984 17.3326 24.0453 18.6823 23.5735 20.0321C23.1204 21.3818 22.6675 22.6731 22.2145 23.9054C21.8466 24.9497 21.5057 25.8748 21.1919 26.6802Z" fill="white"/>
<path fill-rule="evenodd" clip-rule="evenodd" d="M18.9282 3.69267C18.9282 3.15721 18.4625 2.73838 17.9342 2.82482C10.1525 4.09772 4.00884 10.2414 2.73595 18.023C2.64953 18.5515 3.06833 19.0172 3.60379 19.0172C4.05944 19.0172 4.44062 18.6758 4.51657 18.2265C5.69257 11.2708 11.1819 5.78147 18.1377 4.60544C18.5869 4.52949 18.9282 4.14832 18.9282 3.69267ZM23.7294 4.60544C23.28 4.52947 22.9387 4.14832 22.9387 3.69265C22.9387 3.15719 23.4044 2.73838 23.9329 2.82482C31.7144 4.09769 37.8582 10.2414 39.1311 18.023C39.2175 18.5515 38.7987 19.0172 38.2633 19.0172C37.8076 19.0172 37.4264 18.6758 37.3505 18.2265C36.1744 11.2708 30.6851 5.78145 23.7294 4.60544ZM22.9387 38.3521C22.9387 37.8964 23.28 37.5152 23.7294 37.4393C30.6851 36.2632 36.1744 30.774 37.3504 23.8183C37.4264 23.369 37.8076 23.0277 38.2633 23.0277C38.7987 23.0277 39.2175 23.4934 39.1311 24.0218C37.8582 31.8034 31.7144 37.947 23.9329 39.2199C23.4044 39.3064 22.9387 38.8875 22.9387 38.3521ZM3.60379 23.0277C4.05946 23.0277 4.44062 23.369 4.51658 23.8183C5.69261 30.774 11.1819 36.2632 18.1377 37.4393C18.5869 37.5152 18.9282 37.8964 18.9282 38.3521C18.9282 38.8875 18.4625 39.3064 17.9342 39.2199C10.1525 37.947 4.00885 31.8034 2.73597 24.0218C2.64953 23.4934 3.06835 23.0277 3.60379 23.0277Z" fill="white"/>
</g>
<defs>
<clipPath id="clip0_7507_3898">
<rect width="42" height="42" fill="white"/>
</clipPath>
</defs>
</svg>
